<svg xmlns="http://www.w3.org/2000/svg" xmlns:xlink="http://www.w3.org/1999/xlink" preserveAspectRatio="xMidYMid" width="500" height="500" viewBox="0 0 13 13">
  <defs>
    <style>
      .cls-1 {
        fill: #ffffff;
        fill-rule: evenodd;
      }
    </style>
  </defs>
  <path d="M8.221,6.500 L12.872,1.849 C13.030,1.691 13.030,1.434 12.872,1.275 L11.724,0.128 C11.645,0.049 11.541,0.009 11.438,0.009 C11.334,0.009 11.230,0.049 11.151,0.128 L6.500,4.779 L1.849,0.128 C1.691,-0.030 1.434,-0.030 1.275,0.128 L0.128,1.275 C0.049,1.354 0.009,1.458 0.009,1.562 C0.009,1.666 0.049,1.770 0.128,1.849 L4.779,6.500 L0.128,11.150 C-0.030,11.309 -0.030,11.566 0.128,11.724 L1.275,12.871 C1.355,12.951 1.459,12.990 1.562,12.990 C1.666,12.990 1.770,12.951 1.849,12.871 L6.500,8.221 L11.151,12.871 C11.309,13.030 11.566,13.030 11.724,12.871 L12.872,11.724 C12.951,11.645 12.990,11.541 12.990,11.437 C12.990,11.334 12.951,11.230 12.872,11.150 L8.221,6.500 Z" class="cls-1"/>
</svg>
